<?xml version="1.0" standalone="no"?>
<!DOCTYPE svg PUBLIC "-//W3C//DTD SVG 20010904//EN"
 "http://www.w3.org/TR/2001/REC-SVG-20010904/DTD/svg10.dtd">
<svg version="1.0" xmlns="http://www.w3.org/2000/svg"
 width="400.000000pt" height="400.000000pt" viewBox="0 0 400.000000 400.000000"
 preserveAspectRatio="xMidYMid meet">

<g transform="translate(0.000000,400.000000) scale(0.100000,-0.100000)"
fill="#000000" stroke="none">
<path d="M780 3466 c-102 -27 -201 -114 -232 -203 -18 -52 -25 -2377 -8 -2468
14 -72 30 -104 76 -155 48 -53 107 -86 182 -100 91 -18 2342 -8 2422 11 66 15
149 65 179 108 12 16 32 52 44 78 l22 48 3 1170 c2 786 -1 1192 -8 1238 -24
154 -119 253 -267 277 -92 15 -2357 12 -2413 -4z m2420 -224 c19 -9 40 -28 47
-42 10 -20 13 -281 13 -1203 l0 -1179 -34 -34 -34 -34 -1184 2 c-1269 3 -1205
1 -1239 52 -12 18 -14 206 -17 1166 -2 630 0 1164 3 1187 7 48 43 90 83 96 15
2 545 5 1177 5 1077 2 1152 1 1185 -16z"/>
<path d="M1921 2459 c-239 -42 -411 -283 -372 -523 41 -252 281 -429 525 -387
233 40 388 224 388 461 0 285 -258 499 -541 449z"/>
</g>
</svg>
